<mxfile host="app.diagrams.net" modified="2023-08-20T10:09:31.354Z" agent="Mozilla/5.0 (Macintosh; Intel Mac OS X 10_15_7) AppleWebKit/537.36 (KHTML, like Gecko) Chrome/116.0.0.0 Safari/537.36" etag="CjBBZVNvybIiAowKs9_Q" version="21.6.8" type="device">
  <diagram name="Page-1" id="0k9OETTz7vVCFjFY6jv4">
    <mxGraphModel dx="1194" dy="760" grid="1" gridSize="10" guides="1" tooltips="1" connect="1" arrows="1" fold="1" page="1" pageScale="1" pageWidth="850" pageHeight="1100" math="0" shadow="0">
      <root>
        <mxCell id="0" />
        <mxCell id="1" parent="0" />
        <mxCell id="8YpIZvK0Ka9yTY0SyiLP-1" value="" style="verticalLabelPosition=bottom;verticalAlign=top;html=1;shadow=0;dashed=0;strokeWidth=1;shape=mxgraph.android.phone2;strokeColor=#c0c0c0;" vertex="1" parent="1">
          <mxGeometry x="230" y="180" width="340" height="630" as="geometry" />
        </mxCell>
        <mxCell id="8YpIZvK0Ka9yTY0SyiLP-2" value="Dicee" style="rounded=0;whiteSpace=wrap;html=1;" vertex="1" parent="1">
          <mxGeometry x="244" y="237" width="316" height="60" as="geometry" />
        </mxCell>
        <mxCell id="8YpIZvK0Ka9yTY0SyiLP-3" value="" style="swimlane;startSize=0;" vertex="1" parent="1">
          <mxGeometry x="260" y="490" width="120" height="120" as="geometry" />
        </mxCell>
        <mxCell id="8YpIZvK0Ka9yTY0SyiLP-4" value="" style="swimlane;startSize=0;" vertex="1" parent="1">
          <mxGeometry x="420" y="490" width="120" height="120" as="geometry" />
        </mxCell>
      </root>
    </mxGraphModel>
  </diagram>
</mxfile>
